<svg width="49" height="48" viewBox="0 0 49 48" fill="none" xmlns="http://www.w3.org/2000/svg">
<rect x="0.5" width="48" height="48" rx="24" fill="#2E2F5B" fill-opacity="0.1"/>
<g clip-path="url(#clip0_2302_64106)">
<path d="M29.5 33V31C29.5 29.9391 29.0786 28.9217 28.3284 28.1716C27.5783 27.4214 26.5609 27 25.5 27H17.5C16.4391 27 15.4217 27.4214 14.6716 28.1716C13.9214 28.9217 13.5 29.9391 13.5 31V33M35.5 33V31C35.4993 30.1137 35.2044 29.2528 34.6614 28.5523C34.1184 27.8519 33.3581 27.3516 32.5 27.13M28.5 15.13C29.3604 15.3503 30.123 15.8507 30.6676 16.5523C31.2122 17.2539 31.5078 18.1168 31.5078 19.005C31.5078 19.8932 31.2122 20.7561 30.6676 21.4577C30.123 22.1593 29.3604 22.6597 28.5 22.88M25.5 19C25.5 21.2091 23.7091 23 21.5 23C19.2909 23 17.5 21.2091 17.5 19C17.5 16.7909 19.2909 15 21.5 15C23.7091 15 25.5 16.7909 25.5 19Z" stroke="#2E2F5B" stroke-width="2" stroke-linecap="round" stroke-linejoin="round"/>
</g>
<defs>
<clipPath id="clip0_2302_64106">
<rect width="24" height="24" fill="white" transform="translate(12.5 12)"/>
</clipPath>
</defs>
</svg>
