<svg width="50" height="50" viewBox="0 0 50 50" fill="none" xmlns="http://www.w3.org/2000/svg">
<circle cx="25" cy="25" r="25" fill="#3E1C96"/>
<path d="M16.688 34L11.504 17.2H14.24L18.2 30.64L22.16 17.2H24.896L19.712 34H16.688ZM26.7346 34V17.2H32.7346C34.4786 17.2 35.7986 17.6 36.6946 18.4C37.5906 19.2 38.0386 20.232 38.0386 21.496C38.0386 22.472 37.7826 23.264 37.2706 23.872C36.7586 24.48 36.1666 24.92 35.4946 25.192V25.36C36.2946 25.648 36.9826 26.12 37.5586 26.776C38.1346 27.416 38.4226 28.264 38.4226 29.32C38.4226 30.184 38.2066 30.976 37.7746 31.696C37.3586 32.4 36.7426 32.96 35.9266 33.376C35.1106 33.792 34.1106 34 32.9266 34H26.7346ZM29.2786 24.208H32.4226C33.3986 24.208 34.1426 24.016 34.6546 23.632C35.1666 23.232 35.4226 22.632 35.4226 21.832C35.4226 20.248 34.4066 19.456 32.3746 19.456H29.2786V24.208ZM29.2786 31.648H32.5906C33.6306 31.648 34.4306 31.424 34.9906 30.976C35.5506 30.528 35.8306 29.872 35.8306 29.008C35.8306 28.16 35.5346 27.512 34.9426 27.064C34.3506 26.6 33.5506 26.368 32.5426 26.368H29.2786V31.648Z" fill="#F8F8F8"/>
</svg>
