<svg width="49" height="48" viewBox="0 0 49 48" fill="none" xmlns="http://www.w3.org/2000/svg">
<rect x="0.5" width="48" height="48" rx="24" fill="#2E2F5B" fill-opacity="0.1"/>
<path d="M33.3401 16.6099C32.8294 16.0989 32.2229 15.6935 31.5555 15.417C30.888 15.1404 30.1726 14.998 29.4501 14.998C28.7276 14.998 28.0122 15.1404 27.3448 15.417C26.6773 15.6935 26.0709 16.0989 25.5601 16.6099L24.5001 17.6699L23.4401 16.6099C22.4084 15.5782 21.0092 14.9986 19.5501 14.9986C18.0911 14.9986 16.6918 15.5782 15.6601 16.6099C14.6284 17.6416 14.0488 19.0408 14.0488 20.4999C14.0488 21.9589 14.6284 23.3582 15.6601 24.3899L16.7201 25.4499L24.5001 33.2299L32.2801 25.4499L33.3401 24.3899C33.8511 23.8791 34.2565 23.2727 34.533 22.6052C34.8096 21.9378 34.9519 21.2224 34.9519 20.4999C34.9519 19.7774 34.8096 19.062 34.533 18.3945C34.2565 17.7271 33.8511 17.1206 33.3401 16.6099V16.6099Z" stroke="#2E2F5B" stroke-width="2" stroke-linecap="round" stroke-linejoin="round"/>
</svg>
