<svg width="25" height="24" viewBox="0 0 25 24" fill="none" xmlns="http://www.w3.org/2000/svg">
<path d="M8.79492 10.2558V16.5069C8.79492 16.9389 8.50952 17.2891 8.15752 17.2891H7.14931C6.58147 17.2891 6.29703 18.1316 6.69859 18.6244L10.8912 23.7693C11.2928 24.2621 11.9794 23.9131 11.9794 23.2162V10.2558C11.9794 9.82385 11.694 9.47363 11.342 9.47363H9.43232C9.08032 9.47363 8.79492 9.82385 8.79492 10.2558Z" fill="#2E2F5B"/>
<path d="M16.2051 10.2558V16.5069C16.2051 16.9389 16.4905 17.2891 16.8425 17.2891H17.8507C18.4185 17.2891 18.703 18.1316 18.3014 18.6244L14.1088 23.7693C13.7072 24.2621 13.0206 23.9131 13.0206 23.2162V10.2558C13.0206 9.82385 13.306 9.47363 13.658 9.47363H15.5677C15.9197 9.47363 16.2051 9.82385 16.2051 10.2558Z" fill="#2E2F5B"/>
<path d="M16.2434 6.82047V4.54799C16.2434 4.12911 16.5322 3.78949 16.8884 3.78949L18.8209 3.78949C19.1771 3.78949 19.4659 4.12911 19.4659 4.54799V5.74776C19.4659 6.42349 20.1606 6.76197 20.567 6.28411L24.8098 1.29486C25.2161 0.817004 24.9283 0 24.3537 0L13.6659 0C13.3096 0 13.0208 0.33962 13.0208 0.758504L13.0208 6.82047C13.0208 7.23935 13.3096 7.57897 13.6659 7.57897H15.5983C15.9545 7.57897 16.2434 7.23935 16.2434 6.82047Z" fill="#2E2F5B"/>
<path d="M8.75665 6.82047V4.54799C8.75665 4.12911 8.46784 3.78949 8.11163 3.78949L6.17915 3.78949C5.82294 3.78949 5.53413 4.12911 5.53413 4.54799L5.53413 5.74776C5.53413 6.42349 4.83936 6.76197 4.433 6.28411L0.190218 1.29486C-0.216144 0.817004 0.0716957 0 0.646328 0L11.3341 0C11.6904 0 11.9792 0.33962 11.9792 0.758504L11.9792 6.82047C11.9792 7.23935 11.6904 7.57897 11.3341 7.57897H9.40167C9.04545 7.57897 8.75665 7.23935 8.75665 6.82047Z" fill="#2E2F5B"/>
</svg>
