<svg width="82" height="32" viewBox="0 0 82 32" fill="none" xmlns="http://www.w3.org/2000/svg">
<path d="M0.196 2.138H3.248V11H4.62V2.138H7.658V0.877999H0.196V2.138ZM10.6599 11.168C12.3539 11.168 13.5019 10.342 13.8379 8.872H12.6059C12.3819 9.656 11.7099 10.076 10.6879 10.076C9.38591 10.076 8.62991 9.278 8.53191 7.836L13.8239 7.822V7.332C13.8239 5.302 12.5499 3.958 10.6039 3.958C8.61591 3.958 7.25791 5.442 7.25791 7.584C7.25791 9.712 8.64391 11.168 10.6599 11.168ZM10.6039 5.064C11.7659 5.064 12.5079 5.82 12.5079 6.954H8.55991C8.72791 5.75 9.45591 5.064 10.6039 5.064ZM14.8458 7.584C14.8458 9.74 16.1758 11.168 18.1918 11.168C19.8438 11.168 21.1178 10.174 21.3838 8.69H20.0678C19.8298 9.502 19.1298 9.992 18.1918 9.992C16.9458 9.992 16.1478 9.04 16.1478 7.57C16.1478 6.086 17.0018 5.134 18.2478 5.134C19.1298 5.134 19.8298 5.596 20.0538 6.464H21.3698C21.1318 4.938 19.9278 3.958 18.2058 3.958C16.2038 3.958 14.8458 5.442 14.8458 7.584ZM24.0883 10.986V7.262C24.0883 6.086 24.7743 5.162 26.0483 5.162C27.0283 5.162 27.6863 5.722 27.6863 7.108V11H29.0023V6.814C29.0023 5.064 28.1623 3.958 26.4123 3.958C25.3483 3.958 24.5223 4.462 24.0883 5.204V0.695999H22.7723V10.986H24.0883ZM35.6752 4.084C34.6392 5.498 34.2752 6.338 34.2752 7.542C34.2752 9.586 35.8992 11.168 37.9992 11.168C40.0852 11.168 41.6812 9.656 41.6812 7.542C41.6812 5.54 40.2672 4.028 38.1672 4.028C37.8172 4.028 37.4532 4.098 37.1032 4.238L39.6372 0.877999H38.0412L35.6752 4.084ZM35.6752 7.556C35.6752 6.17 36.6272 5.19 37.9992 5.19C39.3432 5.19 40.2952 6.17 40.2952 7.556C40.2952 8.942 39.3432 9.936 37.9992 9.936C36.6272 9.936 35.6752 8.942 35.6752 7.556ZM50.4918 8.956V7.738H49.2878V0.877999H47.5098L42.7358 7.738V8.956H47.9718V11H49.2878V8.956H50.4918ZM44.2198 7.738L47.9718 2.334V7.738H44.2198ZM5.72 31H8.36L13.8 16.38H11.14L7.98 24.8C7.7 25.54 7.4 26.44 7.04 27.72C6.72 26.54 6.44 25.68 6.12 24.8L2.92 16.38H0.2L5.72 31ZM16.5242 31.26C18.0642 31.26 19.4042 30.56 19.8242 29.54L20.0042 31H22.1442V25C22.1442 22.26 20.5042 20.82 17.8442 20.82C15.1642 20.82 13.4042 22.22 13.4042 24.36H15.4842C15.4842 23.32 16.2842 22.72 17.7242 22.72C18.9642 22.72 19.7642 23.26 19.7642 24.6V24.82L16.8042 25.04C14.4642 25.22 13.1442 26.36 13.1442 28.18C13.1442 30.04 14.4242 31.26 16.5242 31.26ZM17.3242 29.42C16.2242 29.42 15.6242 28.98 15.6242 28.08C15.6242 27.28 16.2042 26.78 17.7242 26.64L19.7842 26.48V27C19.7842 28.52 18.8242 29.42 17.3242 29.42ZM26.9813 31V25.68C26.9813 24.08 27.9013 23.04 29.4013 23.04C30.6613 23.04 31.4813 23.84 31.4813 25.5V31H33.9213V24.92C33.9213 22.36 32.6413 20.82 30.1613 20.82C28.8213 20.82 27.6213 21.4 27.0013 22.4L26.8013 21.12H24.5413V31H26.9813ZM38.5786 31L38.7386 29.46C39.3186 30.6 40.5786 31.26 42.0586 31.26C44.8986 31.26 46.7586 29.16 46.7586 26.12C46.7586 23 45.0386 20.8 42.2186 20.8C40.7186 20.8 39.3986 21.46 38.7586 22.56V16.12H36.3186V31H38.5786ZM38.7786 26.02C38.7786 24.24 39.8786 23 41.5586 23C43.2786 23 44.2986 24.26 44.2986 26.02C44.2986 27.78 43.2786 29.02 41.5586 29.02C39.8786 29.02 38.7786 27.8 38.7786 26.02ZM48.1214 26.04C48.1214 29.12 50.3414 31.24 53.4014 31.24C56.4614 31.24 58.6814 29.12 58.6814 26.04C58.6814 22.96 56.4614 20.84 53.4014 20.84C50.3414 20.84 48.1214 22.96 48.1214 26.04ZM50.5614 26.04C50.5614 24.24 51.7214 23.02 53.4014 23.02C55.0814 23.02 56.2414 24.24 56.2414 26.04C56.2414 27.84 55.0814 29.06 53.4014 29.06C51.7214 29.06 50.5614 27.84 50.5614 26.04ZM60.0355 26.04C60.0355 29.12 62.2555 31.24 65.3155 31.24C68.3755 31.24 70.5955 29.12 70.5955 26.04C70.5955 22.96 68.3755 20.84 65.3155 20.84C62.2555 20.84 60.0355 22.96 60.0355 26.04ZM62.4755 26.04C62.4755 24.24 63.6355 23.02 65.3155 23.02C66.9955 23.02 68.1555 24.24 68.1555 26.04C68.1555 27.84 66.9955 29.06 65.3155 29.06C63.6355 29.06 62.4755 27.84 62.4755 26.04ZM74.9895 31V28.34L76.4295 26.84L79.0095 31H81.8095L78.1295 25.04L81.8895 21.12H78.8295L74.9895 25.26V16.12H72.5695V31H74.9895Z" fill="#2E2F5B"/>
</svg>
